<svg width="32" height="32" fill="none" xmlns="http://www.w3.org/2000/svg">
  <path d="M18.575 30.78c3.11-.537 5.83-1.964 8.073-4.233 2.123-2.148 3.489-4.747 4.074-7.724 1.525-7.845-3.366-15.483-11.135-17.387a15.017 15.017 0 0 0-17.709 9.469 14.213 14.213 0 0 0-.83 3.928c0 .086-.024.159-.036.232 0 .024-.012.037-.012.061v1.745c.024.183.049.354.061.537.049.39.098.78.159 1.171.597 3.44 2.244 6.37 4.89 8.7 2.208 1.952 4.842 3.16 7.806 3.575.268.036.549.073.817.097.122.012.244.025.366.049h1.756l.537-.073a17.41 17.41 0 0 0 1.183-.147ZM6.074 24.814l-.122.415-.293-.305c-1.89-1.99-3.098-4.88-3.33-7.931-.183-2.465.208-6.162 3.098-9.688a13.7 13.7 0 0 1 9.708-4.966c3.769-.244 7.477 1.086 10.184 3.636 6.05 5.71 5.245 14.288 1.025 18.961l-.293.33-.122-.428c-.988-3.44-3.086-5.77-6.403-7.125l-.402-.159.353-.256c1.83-1.354 2.732-3.136 2.683-5.283-.036-1.757-.744-3.27-2.122-4.502-2.463-2.197-6.342-1.953-8.623.549-1.134 1.244-1.707 3.026-1.524 4.77.183 1.782 1.122 3.368 2.647 4.454l.353.256-.414.17c-3.293 1.343-5.452 3.734-6.403 7.102ZM16 17.054c-2.67 0-4.866-2.184-4.878-4.856a4.767 4.767 0 0 1 1.415-3.441 4.876 4.876 0 0 1 3.451-1.452c1.305 0 2.537.513 3.464 1.452a4.767 4.767 0 0 1 1.415 3.44c-.025 2.673-2.208 4.857-4.867 4.857Zm.573 12.628c-.122.013-.219.013-.317.025h-.024c-3.44-.037-6.342-1.05-8.854-3.075-.122-.098-.244-.317-.22-.513.5-3.83 3.513-6.942 7.33-7.589 4.695-.793 9.074 2.111 10.196 6.76v.024c.244 1.013.207 1.123-.61 1.733a13.424 13.424 0 0 1-6.342 2.538 15.87 15.87 0 0 1-1.159.097Z" fill="#666" stroke="#666" stroke-width=".7"/>
</svg>
