<svg width="28" height="27" fill="none" xmlns="http://www.w3.org/2000/svg">
  <path d="M28 20.255c-.093.598-.227 1.19-.4 1.77a6.97 6.97 0 0 1-2.017 3.097 7.157 7.157 0 0 1-3.34 1.662 7.27 7.27 0 0 1-3.761-.065 7.166 7.166 0 0 1-3.207-1.933c-4.53-4.42-9.045-8.855-13.546-13.304A5.413 5.413 0 0 1 .041 8.19a5.37 5.37 0 0 1 .833-3.594A5.329 5.329 0 0 1 2.957 2.62a5.45 5.45 0 0 1 2.824-.627c.74.005 1.47.156 2.148.445.679.289 1.29.709 1.8 1.235 3.889 3.815 7.775 7.633 11.66 11.452a3.648 3.648 0 0 1 1.162 2.526 3.638 3.638 0 0 1-.964 2.606 3.771 3.771 0 0 1-2.543 1.204 3.788 3.788 0 0 1-2.676-.882l-.301-.276-10.138-9.93a.948.948 0 0 1-.35-1.026.899.899 0 0 1 .575-.591.934.934 0 0 1 .826.11c.099.079.193.164.28.254 3.39 3.292 6.748 6.584 10.076 9.875.248.284.577.489.944.588.367.1.756.089 1.117-.03.282-.093.536-.25.744-.459a1.806 1.806 0 0 0 .154-2.392 4.837 4.837 0 0 0-.309-.337L8.425 5.009a3.803 3.803 0 0 0-2.56-1.13 3.814 3.814 0 0 0-2.647.92 3.66 3.66 0 0 0-.452 5.099c.113.124.232.248.358.372 4.46 4.385 8.923 8.769 13.392 13.153a5.54 5.54 0 0 0 2.986 1.618 5.65 5.65 0 0 0 2.854-.2 5.558 5.558 0 0 0 2.374-1.567 5.415 5.415 0 0 0 1.264-2.521 5.361 5.361 0 0 0-.181-2.805 5.575 5.575 0 0 0-1.459-2.238L10.094 1.683a.968.968 0 0 1-.365-.999.904.904 0 0 1 .22-.395.927.927 0 0 1 .842-.274.934.934 0 0 1 .417.188c.077.062.147.137.217.206l14.29 14.027a7.377 7.377 0 0 1 2.103 3.843c.056.282.098.565.147.847l.035 1.13Z" fill="#9BCC37"/>
</svg>
