<svg width="30" height="30" fill="none" xmlns="http://www.w3.org/2000/svg">
  <path d="M7.636 16.517c-.355-1.5-.7-2.968-1.055-4.428-.782-3.251-1.565-6.502-2.33-9.762-.067-.292-.165-.405-.495-.397-.89.032-1.787.008-2.685.008C.445 1.938 0 1.532 0 .973 0 .405.437 0 1.07 0h3.765c.61 0 .947.276 1.087.86.223.916.453 1.824.651 2.74.05.227.14.284.362.284 3.584-.008 7.175-.008 10.758-.008 2.982 0 5.963-.008 8.937 0 1.763.008 3.146 1.492 2.94 3.178-.09.722-.304 1.42-.469 2.133-.552 2.302-1.095 4.597-1.656 6.9-.362 1.492-1.474 2.351-3.047 2.351H8.122c-.132 0-.272-.008-.404.016a.976.976 0 0 0-.815 1.022.984.984 0 0 0 .922.9c.115.008.222 0 .338 0 5.436 0 10.872 0 16.309.008.23 0 .478.04.684.138.379.178.56.64.47 1.03a.994.994 0 0 1-.858.762 2.517 2.517 0 0 1-.247.008H7.965c-1.524 0-2.718-.957-2.99-2.376-.305-1.597.783-3.121 2.405-3.389.083 0 .149-.016.256-.04ZM7.116 5.83c.017.097.025.17.042.235.815 3.414 1.639 6.819 2.446 10.232.05.211.157.22.322.22h14.513c.61 0 .947-.268 1.087-.86.676-2.814 1.351-5.619 2.018-8.433.206-.875-.214-1.386-1.136-1.386H7.454c-.098-.008-.214-.008-.337-.008ZM10.856 23.307c1.623 0 2.957 1.313 2.957 2.919 0 1.605-1.326 2.902-2.965 2.91-1.615 0-2.95-1.305-2.957-2.886-.009-1.63 1.318-2.935 2.965-2.943Zm-.016 1.946a.986.986 0 0 0-.972.973c0 .543.46.98 1.013.965a.98.98 0 0 0 .955-.99c-.008-.519-.461-.957-.996-.948ZM24.66 26.242c-.008 1.605-1.342 2.895-2.981 2.895-1.623-.009-2.949-1.33-2.94-2.936.016-1.605 1.342-2.894 2.981-2.894 1.631.008 2.949 1.33 2.94 2.935Zm-1.976-.016a.975.975 0 0 0-.972-.973.981.981 0 0 0-.997.948.982.982 0 0 0 .989.99c.535 0 .98-.43.98-.965Z" fill="#666"/>
</svg>
