<svg width="31" height="30" fill="none" xmlns="http://www.w3.org/2000/svg">
  <path d="M20.716 22.188c-5.785 4.62-13.87 3.233-18.024-1.982C-1.25 15.25-.826 8.086 3.72 3.652 8.361-.875 15.577-1.24 20.685 2.818c5.181 4.11 6.463 11.964 1.833 17.596.095.105.19.198.297.303l7.152 7.04c.35.345.551.741.456 1.231-.18.929-1.293 1.325-2.045.73-.117-.093-.212-.198-.318-.291L21.024 22.5c-.106-.125-.212-.219-.308-.312Zm-8.02-19.694C7.11 2.484 2.543 6.948 2.522 12.445 2.5 17.963 7.058 22.47 12.653 22.48c5.584.01 10.151-4.454 10.172-9.951.021-5.518-4.535-10.024-10.13-10.035Z" fill="#666"/>
</svg>
